Simulation
nRows=23
nColumns=15
endheader
time  TH_x TH_y TH_z SC_y  SC_z  SC_x  AC_y  AC_z  AC_x  GH_y  GH_z  GH_yy  EL_x  PS_y
0.0  0.000000  0.000000  0.000000  -28.416513216337858  3.293706709201209  2.9837128752378943  50.02672968805715  7.728672956309045  1.6843663292819853  136.47099692713175  3.831238158008863  -99.48404304161988  20.67823509111444  120.000000
0.02949999999999999  0.000000  0.000000  0.000000  -28.360312347414073  3.3224343524857782  2.9534230438202704  50.04076534403665  7.805589996665371  1.7625100333422048  132.67891272396758  3.6456210214760847  -95.81562658695782  20.704954621999676  120.000000
0.05899999999999998  0.000000  0.000000  0.000000  -28.305128321298934  3.339644810651239  2.8791198648922336  50.05383388197489  7.8274429680051165  1.8358441031487638  128.9828190664329  3.48877677342393  -92.2373675962354  20.699953322138434  120.000000
0.08849999999999997  0.000000  0.000000  0.000000  -28.248258326761146  3.3486321874144895  2.7651485685064228  50.05747429667245  7.802194783432673  1.9152687779888973  125.01234203495173  3.349430344958907  -88.39613723347887  20.622144868984726  120.000000
0.11799999999999997  0.000000  0.000000  0.000000  -28.189072214963904  3.355028244989763  2.615471900631668  50.05069560218035  7.736611470553609  2.0080791166516003  120.30091838779299  3.226587691486185  -83.84545926214616  20.449880976394123  120.000000
0.14749999999999996  0.000000  0.000000  0.000000  -28.126537280874995  3.3625072473146065  2.4360954219022375  50.03601957963976  7.639954951911516  2.116934223073284  114.36299683965385  3.126712010031281  -78.12262303626339  20.17616053339391  120.000000
0.17699999999999994  0.000000  0.000000  0.000000  -28.062022701055383  3.3754908320334702  2.235156233762627  50.017512590623525  7.52354433686983  2.2418792304773554  106.81227557977881  3.0679002406328904  -70.86534531330287  19.80894275617649  120.000000
0.20649999999999993  0.000000  0.000000  0.000000  -27.997566110151  3.3975538315163867  2.0230005134643863  49.99931071558653  7.39908364216897  2.3821742349617128  97.56298870307725  3.0799189187196574  -62.01115857116435  19.36382808051614  120.000000
0.23599999999999993  0.000000  0.000000  0.000000  -27.935710153383667  3.4304431520460206  1.8112457528951433  49.98588682202936  7.278354358754322  2.5353935103965197  87.0216629941274  3.200938893982484  -51.98959520668478  18.861076279033483  120.000000
0.2654999999999999  0.000000  0.000000  0.000000  -27.879819744577013  3.4752305712400435  1.6122657551753632  49.981729212870505  7.172246430471326  2.698406546383657  76.09416313430131  3.4660141205231705  -41.72852913773625  18.323107646304482  120.000000
0.29499999999999993  0.000000  0.000000  0.000000  -27.83389334488108  3.5322540507230555  1.4381595832720786  49.99091597993397  7.090627080815481  2.866896478929343  65.80708335849222  3.8945535627025643  -32.2758108116557  17.77372318094687  120.000000
0.3244999999999999  0.000000  0.000000  0.000000  -27.803437548839586  3.6013231748975456  1.3002331148147441  50.01614680633573  7.04193147664497  3.0356804402558883  56.839970271662544  4.48616525594011  -24.33097079282212  17.238167396048233  120.000000
0.35399999999999987  0.000000  0.000000  0.000000  -27.79579397179213  3.6817079904185968  1.2082683352498653  50.058162695729514  7.032811676075297  3.1990807267654437  49.38411225504495  5.226896064279143  -18.10334660681083  16.74316289510896  120.000000
0.3834999999999999  0.000000  0.000000  0.000000  -27.820356403814724  3.7720232442969164  1.17028489089695  50.11613692245434  7.068002363751566  3.351320392116024  43.310762006343296  6.097660914223661  -13.477883305002349  16.316316636003716  120.000000
0.41299999999999987  0.000000  0.000000  0.000000  -27.88782811262786  3.8703202191135055  1.1922778631609408  50.18890239502649  7.15034828849785  3.4872326448623765  38.37644231955336  7.07934731004565  -10.217367881691718  15.983833007533741  120.000000
0.4424999999999999  0.000000  0.000000  0.000000  -28.009197425590212  3.9739415847056314  1.2785548040189698  50.27608655084516  7.281295173586269  3.6027715179719575  34.33734205450246  8.154293625839648  -8.072675790716525  15.766508009238988  120.000000
0.47199999999999986  0.000000  0.000000  0.000000  -28.19373169394775  4.079551834928833  1.431731976330619  50.3790864716468  7.461411423192938  3.6959297398606616  30.986194306316353  9.305944240759535  -6.816130472392249  15.674462771354762  120.000000
0.5014999999999998  0.000000  0.000000  0.000000  -28.447255709807703  4.183605704669398  1.6522593190631114  50.50190134519217  7.690955557029018  3.767172133681759  28.16057315378366  10.518534495178168  -6.248024855229806  15.702291762740039  120.000000
0.5309999999999998  0.000000  0.000000  0.000000  -28.770943996819494  4.282823561154786  1.9394713001468624  50.65036523584767  7.969148763642297  3.8189287548250364  25.735741945020866  11.776664256957885  -6.190896700603892  15.828242671611989  120.000000
0.5604999999999999  0.000000  0.000000  0.000000  -29.161354028560464  4.374844742788402  2.291974184751524  50.83008461337898  8.293999661277496  3.8548428067950775  23.61765817505114  13.065321229074272  -6.488107273930021  16.018394194943443  120.000000
0.5899999999999999  0.000000  0.000000  0.000000  -29.611182581687313  4.45919944300039  2.7073551319494893  51.044271181268535  8.662070184189702  3.87946985680891  21.73689162473373  14.37000241660673  -7.006330192900046  16.234019730985597  120.000000
0.6194999999999998  0.000000  0.000000  0.000000  -30.11003119255368  4.5377637918711855  3.1821204245702637  51.29179610779241  9.06813083055233  3.897484068378417  20.043324355234205  15.676756504042933  -7.639525289604079  16.439907737697443  120.000000
0.6489999999999998  0.000000  0.000000  0.000000  -30.645251768054095  4.614691591832683  3.7115106562570266  51.56646895956374  9.504920833279002  3.9133582145689294  18.500066477229755  16.971987639004254  -8.311124557389663  16.61132406121938  120.000000
